<?xml version="1.0" encoding="UTF-8" standalone="no"?>
<!-- Created with Inkscape (http://www.inkscape.org/) -->

<svg
   version="1.1"
   id="svg1"
   width="511.11111"
   height="497.22223"
   viewBox="0 0 511.11111 497.22223"
   sodipodi:docname="2.svg"
   inkscape:version="1.4 (e7c3feb100, 2024-10-09)"
   xmlns:inkscape="http://www.inkscape.org/namespaces/inkscape"
   xmlns:sodipodi="http://sodipodi.sourceforge.net/DTD/sodipodi-0.dtd"
   xmlns="http://www.w3.org/2000/svg"
   xmlns:svg="http://www.w3.org/2000/svg">
  <defs
     id="defs1">
    <inkscape:path-effect
       effect="bspline"
       id="path-effect20"
       is_visible="true"
       lpeversion="1.3"
       weight="33.333333"
       steps="2"
       helper_size="0"
       apply_no_weight="true"
       apply_with_weight="true"
       only_selected="false"
       uniform="false" />
    <inkscape:path-effect
       effect="bspline"
       id="path-effect19"
       is_visible="true"
       lpeversion="1.3"
       weight="33.333333"
       steps="2"
       helper_size="0"
       apply_no_weight="true"
       apply_with_weight="true"
       only_selected="false"
       uniform="false" />
    <inkscape:path-effect
       effect="bspline"
       id="path-effect18"
       is_visible="true"
       lpeversion="1.3"
       weight="33.333333"
       steps="2"
       helper_size="0"
       apply_no_weight="true"
       apply_with_weight="true"
       only_selected="false"
       uniform="false" />
    <inkscape:path-effect
       effect="bspline"
       id="path-effect17"
       is_visible="true"
       lpeversion="1.3"
       weight="33.333333"
       steps="2"
       helper_size="0"
       apply_no_weight="true"
       apply_with_weight="true"
       only_selected="false"
       uniform="false" />
    <inkscape:path-effect
       effect="bspline"
       id="path-effect16"
       is_visible="true"
       lpeversion="1.3"
       weight="33.333333"
       steps="2"
       helper_size="0"
       apply_no_weight="true"
       apply_with_weight="true"
       only_selected="false"
       uniform="false" />
    <inkscape:path-effect
       effect="bspline"
       id="path-effect15"
       is_visible="true"
       lpeversion="1.3"
       weight="33.333333"
       steps="2"
       helper_size="0"
       apply_no_weight="true"
       apply_with_weight="true"
       only_selected="false"
       uniform="false" />
    <inkscape:path-effect
       effect="bspline"
       id="path-effect14"
       is_visible="true"
       lpeversion="1.3"
       weight="33.333333"
       steps="2"
       helper_size="0"
       apply_no_weight="true"
       apply_with_weight="true"
       only_selected="false"
       uniform="false" />
    <inkscape:path-effect
       effect="bspline"
       id="path-effect13"
       is_visible="true"
       lpeversion="1.3"
       weight="33.333333"
       steps="2"
       helper_size="0"
       apply_no_weight="true"
       apply_with_weight="true"
       only_selected="false"
       uniform="false" />
    <inkscape:path-effect
       effect="bspline"
       id="path-effect12"
       is_visible="true"
       lpeversion="1.3"
       weight="33.333333"
       steps="2"
       helper_size="0"
       apply_no_weight="true"
       apply_with_weight="true"
       only_selected="false"
       uniform="false" />
    <inkscape:path-effect
       effect="bspline"
       id="path-effect11"
       is_visible="true"
       lpeversion="1.3"
       weight="33.333333"
       steps="2"
       helper_size="0"
       apply_no_weight="true"
       apply_with_weight="true"
       only_selected="false"
       uniform="false" />
    <inkscape:path-effect
       effect="bspline"
       id="path-effect10"
       is_visible="true"
       lpeversion="1.3"
       weight="33.333333"
       steps="2"
       helper_size="0"
       apply_no_weight="true"
       apply_with_weight="true"
       only_selected="false"
       uniform="false" />
    <inkscape:path-effect
       effect="bspline"
       id="path-effect9"
       is_visible="true"
       lpeversion="1.3"
       weight="33.333333"
       steps="2"
       helper_size="0"
       apply_no_weight="true"
       apply_with_weight="true"
       only_selected="false"
       uniform="false" />
    <inkscape:path-effect
       effect="bspline"
       id="path-effect8"
       is_visible="true"
       lpeversion="1.3"
       weight="33.333333"
       steps="2"
       helper_size="0"
       apply_no_weight="true"
       apply_with_weight="true"
       only_selected="false"
       uniform="false" />
    <inkscape:path-effect
       effect="bspline"
       id="path-effect7"
       is_visible="true"
       lpeversion="1.3"
       weight="33.333333"
       steps="2"
       helper_size="0"
       apply_no_weight="true"
       apply_with_weight="true"
       only_selected="false"
       uniform="false" />
    <inkscape:path-effect
       effect="bspline"
       id="path-effect6"
       is_visible="true"
       lpeversion="1.3"
       weight="33.333333"
       steps="2"
       helper_size="0"
       apply_no_weight="true"
       apply_with_weight="true"
       only_selected="false"
       uniform="false" />
    <inkscape:path-effect
       effect="bspline"
       id="path-effect5"
       is_visible="true"
       lpeversion="1.3"
       weight="33.333333"
       steps="2"
       helper_size="0"
       apply_no_weight="true"
       apply_with_weight="true"
       only_selected="false"
       uniform="false" />
    <inkscape:path-effect
       effect="bspline"
       id="path-effect4"
       is_visible="true"
       lpeversion="1.3"
       weight="33.333333"
       steps="2"
       helper_size="0"
       apply_no_weight="true"
       apply_with_weight="true"
       only_selected="false"
       uniform="false" />
    <inkscape:path-effect
       effect="bspline"
       id="path-effect3"
       is_visible="true"
       lpeversion="1.3"
       weight="33.333333"
       steps="2"
       helper_size="0"
       apply_no_weight="true"
       apply_with_weight="true"
       only_selected="false"
       uniform="false" />
    <inkscape:path-effect
       effect="bspline"
       id="path-effect2"
       is_visible="true"
       lpeversion="1.3"
       weight="33.333333"
       steps="2"
       helper_size="0"
       apply_no_weight="true"
       apply_with_weight="true"
       only_selected="false"
       uniform="false" />
    <inkscape:path-effect
       effect="bspline"
       id="path-effect1"
       is_visible="true"
       lpeversion="1.3"
       weight="33.333333"
       steps="2"
       helper_size="0"
       apply_no_weight="true"
       apply_with_weight="true"
       only_selected="false"
       uniform="false" />
  </defs>
  <sodipodi:namedview
     id="namedview1"
     pagecolor="#ffffff"
     bordercolor="#000000"
     borderopacity="0.25"
     inkscape:showpageshadow="2"
     inkscape:pageopacity="0.0"
     inkscape:pagecheckerboard="0"
     inkscape:deskcolor="#d1d1d1"
     showgrid="false"
     inkscape:zoom="0.95"
     inkscape:cx="410"
     inkscape:cy="286.31579"
     inkscape:window-width="1920"
     inkscape:window-height="1011"
     inkscape:window-x="0"
     inkscape:window-y="0"
     inkscape:window-maximized="1"
     inkscape:current-layer="layer1" />
  <g
     inkscape:groupmode="layer"
     id="layer1"
     inkscape:label="Layer 1"
     transform="translate(-383.33334,-211.11111)">
    <path
       style="opacity:1;fill:#5f8dd3;stroke:none;stroke-width:3.40157;stroke-linecap:round;stroke-dasharray:none;stroke-opacity:1"
       d="m 731.08614,454.86891 5.99251,11.04869 5.80525,17.22847 4.68164,23.97003 2.43446,14.79401 0.5618,17.41573 -1.1236,13.10862 -7.6779,27.34082 -6.17978,17.79026 -13.29588,23.97004 -8.80149,10.86142 -10.11236,8.8015 -16.66667,10.11236 -19.85019,3.74532 0.93633,1.1236 2.43446,1.87265 6.55431,2.62173 12.17228,1.31086 15.54307,-0.93633 15.35581,-5.99251 15.73033,-9.3633 c 0,0 14.04495,-12.73408 15.16854,-13.48314 1.1236,-0.74907 12.73409,-15.16854 14.04495,-15.91761 1.31086,-0.74906 13.85768,-22.28464 13.85768,-22.28464 l 10.67415,-22.09738 8.05244,-26.59176 7.49063,-33.5206 2.43446,-30.14981 -0.5618,-34.45693 -3.37078,-12.17228 -4.11985,-9.3633 -6.36704,-9.73783 -15.16854,-16.29213 -18.35206,-15.16854 -15.35581,-8.8015 -18.35206,-7.30337 -20.97378,-2.43446 -16.4794,0.5618 -14.04495,2.62172 -13.29588,3.37079 -14.98127,3.93258 -11.04869,5.99251 -3.93258,4.30712 0.74906,5.24345 3.93258,5.05618 10.86143,3.74531 11.98502,1.6854 30.33707,-2.05993 15.91761,1.87266 c 0,0 16.85393,3.93259 17.60299,3.93259 0.74907,0 17.0412,6.74157 17.0412,6.74157 l 21.16105,11.61049 15.35581,8.98876 15.54307,13.29588 -4.11985,0.5618 -10.48689,0.37453 -11.61049,0.37453 -11.42322,1.68539 -13.67041,2.05993 -6.74158,2.43446 z"
       id="path5" />
    <path
       style="opacity:1;fill:#bcd35f;stroke:none;stroke-width:3.40157;stroke-linecap:round;stroke-dasharray:none;stroke-opacity:1"
       d="m 541.89853,375.45008 6.79214,5.31915 c 0,0 1.39116,3.92799 1.80033,4.00982 0.40916,0.0818 4.74632,-2.45499 4.99182,-2.78232 0.24549,-0.32734 8.26513,-7.69231 8.26513,-8.10148 0,-0.40916 0.32734,-4.00982 0.32734,-4.58265 0,-0.57283 -3.10966,-0.81833 -3.10966,-0.81833 l -9.24714,1.55483 c 0,0 -5.89198,1.96399 -6.21931,2.12766 -0.32733,0.16367 -3.68249,2.29133 -3.68249,2.29133 z"
       id="path4" />
    <path
       style="opacity:1;fill:#800000;stroke:none;stroke-width:3.40157;stroke-linecap:round;stroke-dasharray:none;stroke-opacity:1"
       d="m 538.95254,374.46809 c 0,0 -4.66449,5.64648 -4.66449,6.05564 0,0.40917 -2.29132,6.95581 -2.29132,6.95581 0,0 0.98199,5.64648 1.39116,5.81015 0.40916,0.16367 2.12766,0.0818 2.53682,-0.32733 0.40917,-0.40917 13.25696,-6.71031 13.58429,-7.20131 0.32733,-0.491 0.0818,-2.37316 0.0818,-2.86416 0,-0.491 -0.98199,-3.76432 -1.30932,-4.17349 -0.32734,-0.40916 -4.00982,-1.96399 -4.00982,-1.96399 l -2.7005,-1.47299 z"
       id="path3" />
    <path
       id="path2"
       style="opacity:1;fill:#2c5aa0;stroke:none;stroke-width:3.40157;stroke-linecap:round;stroke-dasharray:none;stroke-opacity:1"
       d="m 685.94727,225.6543 c 0,0 -3.5945,-6.3e-4 -4.73829,0.32617 -1.14379,0.3268 -11.11132,1.4707 -11.11132,1.4707 l -12.41797,4.08399 -17.48438,6.04687 -13.39843,6.20899 -19.11719,11.11132 -7.84375,5.88282 -3.59375,3.10351 -34.47657,7.18945 -17.64843,5.06641 -15.68555,6.86133 -15.6875,7.84375 -13.72461,10.45703 -17.48437,15.0332 -15.03125,15.03321 -11.11133,14.3789 -14.2168,23.36524 -7.02539,14.70703 -21.07812,50 -3.75782,8.82226 3.26758,4.41211 6.86328,1.14453 13.88867,-0.65429 19.28125,-3.43164 c 0,0 62.58141,-14.54173 62.90821,-15.19531 0.32679,-0.65362 9.96621,-1.14454 10.7832,-1.14454 0.81699,0 -2.77734,3.10547 -2.77734,3.10547 l -5.71875,4.73828 -6.69922,3.26758 -13.39844,4.08594 -20.75195,4.57422 -28.10547,5.0664 c 0,0 -25.81586,3.59375 -27.12305,3.59375 -1.30719,0 -10.13086,-1.30664 -10.13086,-1.30664 l -7.67968,-1.96093 -3.92188,1.4707 -0.32617,3.59375 2.9414,4.90234 7.51563,3.26758 37.74414,3.26953 19.11914,0.32617 27.61328,-2.45117 11.60156,-1.63476 14.70508,-4.73828 12.25586,-6.53516 8.98633,-7.84375 8.33398,-11.11133 5.39258,-9.3125 0.98047,-0.81836 10.6211,3.59571 28.10351,11.27343 26.14453,11.92969 21.4043,6.04492 21.07812,1.96094 h 18.13868 l 16.66601,-1.30664 20.26172,-0.81836 11.60156,-2.61328 31.20899,-7.35352 19.28125,-0.16406 c 0,0 6.69797,0.32683 7.35156,0.49023 0.65359,0.1634 1.63476,-2.61328 1.63477,-2.61328 l -1.96094,-2.77734 -16.01367,-10.94922 -17.97266,-11.4375 c 0,0 -18.4636,-9.14973 -19.11719,-8.98633 -0.6536,0.1634 -15.6875,-6.37304 -15.6875,-6.37304 0,0 -20.58734,-3.43165 -21.89453,-3.43164 -1.30719,0 -20.75262,-1.47 -20.91601,-0.81641 -0.16341,0.6536 -19.77149,1.4707 -19.77149,1.4707 l -17.97266,-3.75781 -3.43164,-1.30859 -4.08593,-5.88086 -0.98047,-5.22852 10.78515,-7.84375 15.03321,-5.22852 23.6914,-6.04687 16.83008,-1.30664 17.32031,1.30664 12.0918,2.45117 6.80859,1.08985 14.53321,6.90234 16.83203,10.27148 18.31641,16.33594 10.89062,12.87305 8.41602,13.86133 4.82812,20.91406 0.74219,14.85156 -1.48633,31.3125 -4.45508,30.44531 -11.13867,40.47071 -17.69727,37.5 -24.50586,29.20898 -30.07421,19.42969 -2.15235,0.96094 -12.69922,4.36132 -9.0332,1.11329 -11.75781,-0.61915 -9.90235,-2.22656 -6.43554,-2.47656 -7.17774,-1.60742 -4.33203,-0.125 0.99024,-3.46485 16.33789,-31.06445 15.83984,-27.47461 3.83789,-12.37695 -0.86719,-12.62305 -5.44531,-4.58008 -11.01367,4.33203 -32.55078,16.95508 -35.27149,22.0293 -20.42187,15.22266 -6.06445,8.29296 -7.54883,2.35157 -3.96094,0.49414 -3.46484,-1.11328 -11.38672,-4.33203 -11.50977,-0.74219 -20.04883,5.57031 -6.06445,1.73242 -22.89648,2.35156 -38.98438,-0.61914 -15.4707,0.99024 -0.61914,2.8457 2.9707,5.44531 13.98438,12.12891 L 475,671.90625 c 0,0 11.8819,6.55983 12.37695,6.68359 0.49505,0.12376 17.07917,4.94922 17.57422,4.94922 0.49504,0 25.00015,3.83789 25.99024,3.83789 0.9901,0 21.16211,-2.59961 21.16211,-2.59961 0,0 25.12409,-4.82617 25.61914,-4.82617 0.49505,0 15.46979,-5.07473 15.96484,-5.32226 0.49505,-0.24752 7.30273,3.71289 7.30273,3.71289 l 22.77149,10.02539 24.00976,5.44531 24.38282,1.36133 22.15234,-1.36133 c 0,0 22.02924,-4.95149 23.39063,-5.57031 1.36139,-0.61881 18.31836,-9.40625 18.31835,-9.40625 0,0 24.9987,-15.34675 26.23633,-15.8418 1.23762,-0.49505 20.17383,-18.31641 20.17383,-18.31641 l 15.96484,-16.21289 17.20313,-24.6289 12.74805,-23.01953 12.37695,-33.16797 4.70117,-28.3418 -1.85547,-46.16211 -4.58007,-31.68359 -9.65235,-34.5293 7.67383,-7.67383 22.40039,-18.3164 c 0,0 20.29668,-20.29792 20.66797,-20.79297 0.37128,-0.49504 2.59961,-7.17774 2.59961,-7.17774 l -2.84766,-4.08398 -13.98437,-10.89258 -16.08985,-7.54883 -16.21289,-3.83593 -24.25781,-2.10352 -19.30664,-0.61914 -14.97461,0.61914 -6.11719,0.6582 1.37891,-2.45117 -1.30664,-2.61523 -3.75977,-3.59375 -13.07031,-11.27539 c 0,0 -7.35429,-6.20907 -8.98828,-7.18946 -1.63398,-0.9804 -17.48242,-10.29492 -17.48242,-10.29492 l -21.40625,-9.63867 -20.58789,-6.53711 -20.09766,-5.22852 -2.125,-0.8164 14.86914,-15.35938 9.80469,-12.25586 2.77734,-7.51562 -0.49023,-3.10547 z m -125.77149,142.24023 4.21094,0.17578 -1.22852,4.91211 -7.01758,9.12305 -9.82421,5.4375 c 0,0 -11.93004,5.43921 -12.10547,6.31641 0,-10e-6 -1.05343,-4.21036 -1.4043,-4.91211 -0.35088,-0.70176 -3.4e-4,-4.56193 -0.17578,-5.26368 -0.17544,-0.70175 1.05273,-4.03515 1.05273,-4.03515 0,0 5.26368,-4.03457 5.26368,-4.73633 0,-0.70175 8.24609,-4.56055 8.24609,-4.56055 z" />
    <path
       id="path1"
       style="fill:#000000;stroke-linecap:round"
       d="m 682.74609,224.31836 c -2.94801,0.0211 -6.64777,0.61088 -11.24804,1.61719 -10.51493,2.30012 -25.74278,6.86638 -39.41602,13.34375 -13.60889,6.44688 -26.18473,15.18913 -37.77734,23.25195 -9.53593,1.30214 -19.31049,3.25361 -30.03516,6.05664 -10.88148,2.84402 -22.76233,6.55245 -33.34375,11.2207 -10.58141,4.66827 -19.82487,10.29161 -30.23437,18.22266 -10.40952,7.93104 -22.01124,18.17429 -30.76563,27.36328 -8.7544,9.18899 -14.61307,17.2904 -19.80664,25.14258 -5.19356,7.85217 -9.78234,15.53797 -13.57617,23.25 -3.79383,7.71203 -6.76142,15.38362 -10.10156,23.76172 -3.34022,8.37831 -6.99368,17.32784 -10.68946,26.3789 0.0127,0.0323 0.0264,0.0642 0.041,0.0957 -2.45254,5.02769 -4.90405,10.05083 -6.4082,13.56054 -0.75438,1.76021 -1.32184,3.17142 -1.4668,4.6211 -0.14496,1.44968 0.38292,3.02596 1.50586,4.0625 2.24586,2.07306 6.05028,2.99638 10.27344,3.57226 4.22315,0.57588 8.895,0.56242 18.01953,-0.86523 9.12452,-1.42765 22.78015,-4.25981 32.84179,-6.60547 10.06164,-2.34566 16.50294,-4.20267 23.26172,-6.10742 6.75879,-1.90475 13.88972,-3.86887 18.59571,-4.89453 4.70598,-1.02566 7.02327,-1.13328 9.5664,-1.45117 0.62853,-0.0786 1.24594,-0.19302 1.86914,-0.29102 -3.00975,2.24171 -6.27838,4.37541 -10.63086,6.26953 -6.43547,2.80061 -15.3492,5.13465 -25.58984,7.46485 -10.24064,2.33021 -21.77998,4.66251 -32.25781,6.43945 -10.47783,1.77694 -19.91613,3.00222 -26.9375,3.67383 -7.02137,0.6716 -11.55033,0.76802 -15.07422,0.0859 -3.5239,-0.68205 -6.28665,-2.34777 -9.31836,-2.42968 -3.0317,-0.0819 -5.47315,2.06467 -5.90625,4.75 -0.4331,2.68531 0.77534,5.30819 2.45508,7.14062 7.6211,6.4626 22.30952,5.83047 31.4375,6.93534 9.52122,1.11286 19.56265,1.85811 30.17773,1.67187 10.61508,-0.18624 21.74259,-1.30095 31.68945,-2.66015 9.94687,-1.35921 18.80811,-2.96771 26.7129,-6.06641 7.90479,-3.0987 14.6677,-7.61359 19.27734,-11.40234 4.60964,-3.78876 7.10053,-6.91935 8.88476,-9.59571 1.78423,-2.67635 2.93504,-4.97944 4.22657,-7.5625 1.29152,-2.58305 2.81915,-5.57987 3.625,-6.73828 0.15874,-0.22819 0.23397,-0.30041 0.29883,-0.36914 0.0688,0.0182 0.10461,0.0227 0.26171,0.0781 0.99947,0.35275 2.65845,0.99239 4.54102,1.51172 4.94373,0.75673 9.09316,3.1527 13.72656,5.11914 3.71974,1.57599 8.99675,3.78536 15.13086,6.48437 6.13411,2.699 13.15823,5.9026 20.81445,9.11328 7.65623,3.21068 16.0207,6.45875 26.73633,8.82617 10.71564,2.36742 23.7182,3.85036 36.14258,3.97461 12.4244,0.12427 24.17877,-1.11524 33.33594,-2.03711 9.15717,-0.92187 15.8614,-1.53869 22.39844,-2.98437 0.11469,-0.0254 0.22537,-0.0582 0.33984,-0.084 3.02501,5.19009 5.95281,10.35494 8.1582,17.0664 2.37332,7.22247 3.97747,16.42128 6.13867,26.48633 2.1612,10.06505 4.81963,20.73225 4.69922,32.83594 -0.12041,12.10368 -3.03004,25.8739 -7.24609,39.74414 -4.21606,13.87024 -9.71759,27.78774 -16.38867,39.31054 -6.67107,11.5228 -14.5185,20.6831 -23.59961,27.53907 -9.0811,6.85597 -19.4355,11.41148 -28.93164,12.83593 -5.6524,0.84788 -11.06312,0.54297 -16.36133,-0.21875 2.73385,-6.05979 5.48491,-12.09961 9.60742,-19.40234 4.26563,-7.55624 10.04149,-16.53095 14.55664,-24.13867 4.51515,-7.60772 7.75684,-13.82332 9.7832,-19.14258 2.02639,-5.31926 2.81529,-9.76871 2.87891,-14.66797 0.0318,-2.44962 -0.0962,-5.07799 -0.73633,-7.43945 -0.64011,-2.36146 -1.88152,-4.61993 -4.2207,-5.64063 -1.16958,-0.51034 -2.43124,-0.67313 -3.76758,-0.60351 -1.33634,0.0696 -2.74658,0.37105 -4.21094,0.78711 -2.92871,0.83211 -6.12891,2.22047 -9.36718,3.77734 -6.47656,3.11374 -13.16113,6.95277 -19.76563,10.96484 -6.60449,4.01208 -13.1145,8.18844 -18.95312,11.47266 -5.83863,3.28422 -11.13959,5.74906 -17.1211,9.23828 -5.98151,3.48922 -12.52977,7.93857 -17.61328,11.65821 -5.0835,3.71964 -8.73957,6.73773 -11.73633,9.92578 -2.76938,2.94616 -4.90988,5.96933 -6.96679,8.93554 -0.56055,0.0202 -1.1548,0.0221 -1.66407,0.0684 -3.55288,0.32298 -6.22088,1.07474 -8.10156,2.20313 -0.31481,0.18888 -0.57061,0.41986 -0.83789,0.64258 -2.79373,-1.51951 -5.63986,-3.05525 -8.67578,-4.27149 -3.187,-1.27676 -6.54443,-2.18333 -10.15625,-2.57031 -1.80591,-0.19349 -3.69714,-0.2556 -5.77539,-0.10156 -2.07825,0.15403 -4.34241,0.52446 -6.89063,1.19336 -5.09641,1.33781 -11.18744,3.77948 -17.86718,5.40429 -6.67974,1.62482 -14.04162,2.47525 -23.79883,2.65821 -9.75721,0.18295 -21.93058,-0.30738 -32.61524,-0.36914 -5.34233,-0.0309 -10.30948,0.0444 -14.42578,0.32617 -4.11629,0.28172 -7.3128,0.69598 -9.51562,1.66211 -1.10142,0.48306 -2.03389,1.17981 -2.50781,2.22656 -0.47393,1.04675 -0.32419,2.20721 0.0566,3.14062 0.76173,1.86683 2.3215,3.47188 4.19726,5.37891 3.75153,3.81405 9.08138,8.64352 16.06836,14.33203 6.98697,5.68852 15.66953,12.27712 24.72852,16.80664 9.059,4.52953 18.32496,6.90121 27.36718,8.69727 9.04223,1.79606 18.06448,3.05161 28.45704,2.55078 10.39255,-0.50083 22.02335,-2.73485 31.73437,-5.02344 9.71102,-2.28857 17.50678,-4.64149 25.25586,-6.97851 0.11574,-0.0381 0.22706,-0.0885 0.33203,-0.15039 4.04077,2.59246 8.54922,5.40429 13.38086,7.74218 5.84812,2.82975 11.91385,4.8449 21.57422,7.07422 9.66036,2.22933 23.03211,4.7108 36.54492,5.20899 13.51282,0.49819 27.03149,-0.99092 37.98047,-3.23047 10.94899,-2.23956 19.3964,-5.26533 29.33984,-10.36133 9.94345,-5.096 21.46452,-12.28294 32.81055,-21.21094 11.34602,-8.928 22.49837,-19.58479 32.48242,-31.61523 9.98406,-12.03046 18.77534,-25.40549 26.02149,-38.96875 7.24614,-13.56328 12.9452,-27.31255 16.79492,-40.10352 3.84973,-12.79097 5.85438,-24.72289 5.73047,-42.32226 -0.12392,-17.59938 -2.34167,-40.87966 -5.43555,-58.82422 -3.02609,-17.55142 -6.89713,-29.89826 -10.74805,-42.05664 2.84768,-2.75885 5.61245,-6.31543 8.95704,-9.47071 3.64011,-3.43408 8.1558,-6.54962 13.38867,-10.49218 5.23285,-3.94257 11.12183,-8.67653 15.91992,-13.47461 4.79809,-4.79808 8.41008,-9.56784 11.29492,-13.08594 1.44242,-1.75905 2.91557,-3.34361 3.5625,-5.48438 0.64693,-2.14076 0.0805,-4.65052 -1.89844,-7.18359 -3.95787,-5.06613 -13.39229,-11.65912 -23.63476,-16.38086 -10.24248,-4.72173 -21.17625,-7.33379 -36.54492,-8.55469 -7.68434,-0.61044 -16.48256,-0.87855 -25.83399,-0.97656 -7.27889,-0.0763 -14.91725,-0.0432 -22.60351,0.006 -3.83015,-4.23105 -7.74881,-8.55391 -13.92383,-13.6875 -6.19036,-5.14636 -14.59329,-11.07604 -22.58985,-16.03516 -7.99656,-4.95911 -15.58671,-8.94151 -23.96484,-12.54101 -8.37813,-3.59949 -17.54022,-6.81694 -27.42773,-9.7832 -6.99133,-2.0974 -14.36573,-4.05576 -21.81446,-5.64844 6.3449,-5.86762 12.60474,-11.78463 17.62696,-17.94141 2.80125,-3.43408 5.20606,-6.91983 6.83789,-10.08008 1.63182,-3.16025 2.65877,-5.95457 2.01562,-8.52734 -0.32158,-1.2864 -1.21476,-2.40104 -2.36523,-3.04102 -1.15048,-0.63997 -2.50105,-0.90754 -4.06446,-0.99023 -0.39085,-0.0207 -0.7976,-0.0284 -1.21875,-0.0254 z m 0.0352,3.40234 c 0.35676,-0.004 0.6913,0.003 1.00391,0.0195 1.25042,0.0661 2.11697,0.30337 2.58984,0.56641 0.47287,0.26305 0.60745,0.44929 0.71875,0.89453 0.22261,0.8905 -0.26399,3.28925 -1.73633,6.14063 -1.47233,2.85137 -3.76206,6.19558 -6.45117,9.49218 -5.28067,6.47364 -12.15775,12.85454 -19.11133,19.26954 -1.71776,-0.33174 -3.43557,-0.67818 -5.15234,-0.96094 -10.55562,-1.73859 -20.97479,-2.48099 -30.89258,-2.54297 -7.6389,-0.0478 -15.0017,0.4361 -22.39453,1.19727 10.12688,-6.98507 20.83325,-14.06641 32.18359,-19.44336 13.34714,-6.32289 28.42113,-10.84843 38.68555,-13.09375 4.49067,-0.98234 8.05935,-1.51104 10.55664,-1.53907 z M 623.72852,264 c 9.7626,0.061 20.00652,0.79449 30.36132,2.5 10.35481,1.7055 20.86925,4.39222 30.66211,7.33008 9.79287,2.93787 18.83336,6.1177 27.06055,9.65234 8.22719,3.53466 15.64486,7.42359 23.51562,12.30469 7.87077,4.8811 16.19402,10.76084 22.20704,15.75977 4.93934,4.10631 8.27837,7.61821 11.46875,11.0996 -10.13998,-0.75033 3.42962,22.28988 5.16021,26.48065 3.30051,7.79436 7.19366,14.96185 12.87696,24.09571 5.68329,9.13385 13.15991,20.25757 18.97265,27.42968 10.82299,11.6669 10.83096,17.57191 22.19141,9.49414 3.69915,11.70124 7.33942,23.51618 10.2168,40.20508 3.05624,17.72626 5.26662,40.93829 5.38867,58.27149 0.12204,17.3332 -1.80947,28.77081 -5.58594,41.31836 -3.77646,12.54755 -9.3939,26.10425 -16.53906,39.47851 -7.14517,13.37426 -15.8193,26.56643 -25.63867,38.39844 -9.81936,11.832 -20.80533,22.33091 -31.96876,31.11523 -11.16342,8.78432 -22.52089,15.86727 -32.25781,20.85743 -9.73692,4.99015 -17.77119,7.86616 -28.4707,10.05468 -10.6995,2.18853 -23.99511,3.65189 -37.17383,3.16602 -13.17871,-0.48587 -26.37635,-2.92623 -35.9043,-5.125 -9.52795,-2.19876 -15.26827,-4.11689 -20.85937,-6.82227 -5.5911,-2.70537 -11.07344,-6.23376 -15.62109,-9.18359 -4.54766,-2.94983 -8.04633,-5.24393 -11.58594,-8.18359 -3.5396,-2.93968 -7.1104,-6.5429 -9.28516,-10.14844 -2.17475,-3.60554 -3.11131,-7.43148 -3.52148,-10.47852 -0.41017,-3.04703 -0.28015,-5.18434 0.0391,-6.67383 0.31918,-1.48948 0.53803,-1.93375 1.73242,-2.65039 1.19441,-0.71663 3.44788,-1.4404 6.66016,-1.73242 0.75321,-0.0685 1.55699,-0.10911 2.41992,-0.10937 0.0606,10e-4 0.12124,-6.7e-4 0.18164,-0.006 2.78742,0.0221 6.31546,0.55079 11.60547,2.47851 7.06982,2.57631 17.31114,7.7485 26.69922,11.54102 9.38806,3.79252 17.8544,6.15872 26.63476,8.19922 4.74522,1.10275 9.67381,2.07904 14.79297,2.55078 0.0338,0.0327 0.069,0.064 0.10547,0.0937 11.28263,3.95474 22.90934,8.04326 37.30469,6.33594 14.39533,-1.70734 31.33149,-9.13751 47.33398,-22.98243 16.00248,-13.84492 31.01155,-34.05736 41.65821,-57.49804 10.64666,-23.44067 16.87627,-50.00376 20.08398,-74.68555 3.20771,-24.68178 3.40906,-47.48351 0.42969,-63.73437 -2.97937,-16.25086 -9.28216,-25.92401 -19.48438,-36.93165 -10.20222,-11.00761 -24.46983,-23.69551 -39.28125,-31.55273 -14.8114,-7.85722 -29.95065,-10.73494 -42.37695,-11.36523 -3.10657,-0.15758 -6.04801,-0.17378 -8.86914,-0.0762 -8.46339,0.29288 -15.84831,1.60976 -23.39648,3.2129 -10.06421,2.13754 -20.56609,4.79651 -27.97266,7.77539 -5.93044,2.38518 -9.77808,4.97855 -13.11914,7.53125 9.7e-4,-0.0136 9.7e-4,-0.0274 0.002,-0.041 0.26855,-3.71506 1.16389,-7.31709 2.53516,-11.01953 1.37127,-3.70244 3.22809,-7.52022 5.11133,-11.38086 0.41122,-0.84409 0.0606,-1.86173 -0.78321,-2.27344 -0.84409,-0.41121 -1.86172,-0.0606 -2.27343,0.78321 -1.88324,3.86063 -3.79249,7.76469 -5.2461,11.68945 -1.4536,3.92475 -2.43991,7.85462 -2.73633,11.95508 -0.29641,4.10045 0.0724,8.34904 1.42578,11.88867 9.95518,16.68361 42.41042,7.28341 61.76563,8.53515 5.3743,0.36644 9.84009,0.84797 15.62305,1.88282 5.78295,1.03484 12.81235,2.61502 19.86132,5.32617 7.04897,2.71116 14.25,6.61019 21.31836,10.48242 7.06836,3.87224 13.93053,7.6726 19.76953,11.38281 5.83903,3.71021 10.7148,7.36596 14.2168,10.00782 2.55214,1.92529 3.69059,2.78672 4.94141,3.72851 -9.20187,1.44965 -7.69293,-0.34141 -21.04883,0.35547 -5.87567,0.30659 -12.48635,1.1798 -18.93945,2.74609 -5.97,1.44903 -11.67417,3.4221 -17.44727,4.8086 -0.13116,0.003 -0.26158,0.0202 -0.38867,0.0527 -0.004,0.0156 -0.008,0.0312 -0.0117,0.0469 -0.33383,0.0785 -0.66557,0.17604 -1,0.25 -6.25522,1.38335 -12.83365,1.99673 -22.00391,2.91992 -9.17025,0.92318 -20.78481,2.14326 -32.96093,2.02148 -12.17612,-0.12177 -25.00457,-1.5898 -35.44532,-3.89648 -10.44074,-2.3067 -18.55822,-5.45517 -26.15429,-8.64063 -7.59608,-3.18546 -14.59366,-6.37676 -20.75977,-9.08984 -6.16611,-2.71309 -11.4669,-4.93334 -15.17383,-6.50391 -4.69095,-2.64741 -9.05189,-3.95162 -14.14843,-5.26562 -1.68451,-0.46469 -3.22288,-1.05419 -4.31446,-1.43945 -0.27289,-0.0963 -0.5968,-0.22432 -0.97656,-0.29493 -0.37976,-0.0706 -0.81449,-0.0842 -1.30859,0.0469 -0.98821,0.26217 -1.61618,0.96742 -2.19727,1.80273 -1.16218,1.67063 -2.58542,4.5771 -3.87695,7.16016 -1.29153,2.58306 -2.3558,4.70753 -4.01563,7.19726 -1.65982,2.48976 -3.84339,5.2641 -8.21289,8.85547 -4.36949,3.59138 -10.88887,7.93287 -18.35937,10.86133 -7.4705,2.92846 -16.07514,4.51643 -25.93164,5.86328 -9.85651,1.34686 -20.87072,2.44808 -31.28907,2.63086 -10.41834,0.18279 -20.30149,-0.54922 -29.72265,-1.65039 -8.84232,-1.03351 -17.26544,-2.39794 -25.69141,-3.78125 -1.48943,-0.54351 -2.70758,-1.06488 -3.63281,-2.07422 -1.02633,-1.11962 -1.78736,-3.17301 -1.60547,-4.30078 0.18189,-1.12775 0.93765,-1.93168 2.45703,-1.89062 1.51937,0.0411 4.66143,1.57319 8.76367,2.36718 4.10225,0.794 8.92106,0.64431 16.04493,-0.0371 7.12387,-0.68142 16.62607,-1.91691 27.18164,-3.70704 10.55557,-1.79012 22.14256,-4.13072 32.44336,-6.47461 10.30079,-2.34389 19.34453,-4.68356 26.19335,-7.66406 6.84885,-2.9805 11.32973,-6.56573 15.63477,-10.00976 0.49878,-0.40397 0.72765,-1.05433 0.5918,-1.68164 0.0557,-0.23587 0.0604,-0.48093 0.0137,-0.71875 -0.18434,-0.92037 -1.07944,-1.5174 -2,-1.33399 -2.46002,0.492 -4.88084,0.97436 -7.25781,1.27149 -2.37697,0.29712 -4.98098,0.43658 -9.86914,1.50195 -4.88817,1.06536 -12.02344,3.03698 -18.79493,4.94531 -6.77148,1.90833 -13.12363,3.73994 -23.11132,6.06836 -9.98769,2.32842 -23.63682,5.15521 -32.59375,6.55664 -8.95694,1.40143 -13.14014,1.38856 -17.03516,0.85742 -3.89501,-0.53113 -7.47157,-1.82218 -8.42383,-2.70117 -0.47612,-0.43948 -0.49996,-0.52373 -0.42969,-1.22656 0.0703,-0.70283 0.48539,-1.9353 1.20704,-3.61914 1.44329,-3.36768 3.9013,-8.41203 6.36132,-13.45508 0.0812,-0.17503 0.13209,-0.3626 0.15039,-0.55469 3.65307,-8.94644 7.27029,-17.80346 10.58008,-26.10547 3.34778,-8.39723 6.28481,-15.97926 9.99414,-23.51953 3.70935,-7.54027 8.2227,-15.10587 13.36133,-22.875 5.13865,-7.76914 10.84262,-15.65648 19.43164,-24.67187 8.58901,-9.01541 20.1084,-19.19069 30.36328,-27.00391 10.25488,-7.81323 19.21785,-13.25949 29.54688,-17.8164 10.32903,-4.5569 22.06316,-8.2289 32.83008,-11.04297 10.76692,-2.81408 20.53451,-4.76728 30.05468,-6.04883 9.52018,-1.28156 18.78232,-1.8911 28.54493,-1.83008 z m 158.15039,61.97461 c 14.62528,-0.0427 28.58693,0.10525 39.92382,1.00586 15.11587,1.20081 25.54745,3.71625 35.39063,8.25391 9.84318,4.53766 19.21432,11.33405 22.37891,15.38476 1.58229,2.02536 1.65467,3.0055 1.32226,4.10547 -0.33241,1.09997 -1.4577,2.5083 -2.93555,4.31055 -2.95568,3.60449 -6.46658,8.23612 -11.07031,12.83984 -4.60373,4.60372 -10.39641,9.26985 -15.5625,13.16211 -5.16609,3.89226 -9.76599,7.04587 -13.67578,10.73437 -3.9098,3.6885 -6.94321,7.7102 -9.66211,10.17579 -2.36891,2.1482 -4.67029,3.335 -7.10547,4.4707 -3.56976,-2.72283 -7.13503,-5.62405 -12.22656,-11.90625 -5.62585,-6.94151 -13.09658,-18.03776 -18.72656,-27.08594 -5.62999,-9.04818 -9.41455,-16.02486 -12.63281,-23.625 -2.90196,-6.85314 -5.35552,-14.26205 -7.7754,-21.7539 4.13865,-0.0293 8.27959,-0.0603 12.35743,-0.0723 z m -220.64649,40.50586 c -0.24123,0.003 -0.48842,0.0126 -0.74023,0.0254 -4.02897,0.20488 -10.16472,1.83795 -15.13477,3.87695 -4.97004,2.039 -8.60896,4.47322 -10.98437,6.98438 -2.37541,2.51115 -3.46913,5.26361 -3.53907,8.20117 -0.0699,2.93755 0.7267,5.98883 1.09571,7.46484 l 0.8789,3.51758 1.89063,-0.92773 c 8.89442,-4.37432 15.45796,-7.67965 20.66797,-11.46875 5.60787,-4.07847 9.08822,-8.31372 10.41406,-11.55469 0.33146,-0.81024 0.54514,-1.58977 0.53711,-2.41406 -0.008,-0.82429 -0.31376,-1.72574 -0.91797,-2.36133 -1.05737,-1.11228 -2.47932,-1.36636 -4.16797,-1.34375 z m 140.13672,1.13281 c 1.42823,0.0116 2.89124,0.0545 4.39648,0.13086 12.04198,0.6108 26.68818,3.40623 40.95508,10.97461 14.26691,7.56836 28.36807,20.05825 38.37891,30.85937 10.01082,10.80114 15.76295,19.56821 18.63477,35.23243 2.87181,15.66421 2.71823,38.25145 -0.45704,62.68359 -3.17526,24.43215 -9.35583,50.70305 -19.80859,73.7168 -10.45275,23.01376 -25.22901,42.87157 -40.78711,56.33203 -15.5581,13.46044 -31.95547,20.57015 -45.50976,22.17773 -9.84247,1.16735 -18.30231,-0.54015 -26.51954,-3.07031 1.01407,-0.0899 2.00032,-0.0778 3.03125,-0.23242 10.18426,-1.52767 20.98628,-6.31996 30.47852,-13.48633 9.49223,-7.16635 17.63301,-16.70112 24.49219,-28.54883 6.85918,-11.84771 12.42811,-25.97407 16.69922,-40.02539 4.27109,-14.05132 7.26703,-28.07944 7.39257,-40.69922 0.12554,-12.61977 -2.62957,-23.59966 -4.77343,-33.58398 -2.14388,-9.98433 -3.73756,-19.23568 -6.23438,-26.83399 -2.20021,-6.69566 -5.08235,-11.87775 -7.9707,-16.85937 5.16402,-1.36205 10.14868,-3.02043 15.1582,-4.23633 6.21614,-1.50878 12.64252,-2.35834 18.31445,-2.6543 13.10361,-0.68368 13.22762,1.33568 24.02344,-0.79687 0.39203,-0.0774 0.68721,-0.12797 1.08203,-0.28711 0.19741,-0.0796 0.44372,-0.17456 0.75391,-0.49219 0.31019,-0.31763 0.59084,-1.03448 0.50586,-1.57226 -0.16996,-1.07557 -0.62168,-1.16701 -0.86719,-1.3711 -0.24551,-0.20408 -0.48478,-0.37416 -0.76953,-0.58398 -1.13902,-0.83927 -3.24089,-2.44458 -6.75,-5.0918 -3.5091,-2.64722 -8.4722,-6.37113 -14.44141,-10.16406 -5.9692,-3.79294 -12.88401,-7.61917 -19.96093,-11.49609 -7.07692,-3.87693 -14.38816,-7.84985 -21.73047,-10.67383 -7.34233,-2.82398 -14.58207,-4.44185 -20.48438,-5.49805 -5.9023,-1.05621 -10.53838,-1.5581 -15.98828,-1.92969 -15.10763,-3.74741 -47.92907,6.13466 -58.82031,-6.35566 -1.22655,-1.40663 -1.06579,-3.85298 -1.21875,-6.07421 3.84715,-3.04842 7.5657,-5.94295 14.39453,-8.68946 7.01793,-2.82256 17.4387,-5.48372 27.41016,-7.60156 8.72502,-1.8531 16.99261,-3.2806 26.99023,-3.19922 z m -140.14258,2.27734 c 1.16015,0.0155 1.66778,0.26927 1.69141,0.27149 -10e-4,0.0106 -0.002,0.007 -0.002,0.0566 0.002,0.16164 -0.0612,0.55097 -0.28321,1.09375 -0.88817,2.17111 -4.04932,6.2981 -9.26562,10.0918 -0.57182,0.41586 -1.17292,0.83083 -1.79688,1.24414 -0.10339,-0.68641 -0.29644,-1.39195 -0.63476,-2.10156 -0.91925,-1.92807 -2.63347,-3.42289 -4.53711,-4.48047 -0.89272,-0.49596 -1.8042,-0.86883 -2.71094,-1.17969 0.91805,-0.46537 1.89854,-0.92157 2.96094,-1.35742 4.62412,-1.89709 10.7874,-3.4628 14.01562,-3.62696 0.20177,-0.0103 0.38943,-0.014 0.5625,-0.0117 z m -21.51172,7.36915 c 0.0226,0.0103 0.0454,0.02 0.0684,0.0293 1.84502,0.49201 3.54548,0.96255 4.96289,1.75 1.41743,0.78746 2.65548,1.9982 3.11914,2.97071 0.35585,0.74635 0.42135,1.62335 0.39063,2.68945 -3.95136,2.32273 -8.51204,4.61565 -13.1582,6.9082 -0.37857,-1.55836 -0.91103,-3.95342 -0.86328,-5.95898 0.0531,-2.22856 0.67971,-3.90343 2.60937,-5.94336 0.75281,-0.79583 1.71302,-1.62105 2.87109,-2.44531 z M 685.0625,565.24219 c 0.96758,-0.0494 1.74196,0.0497 2.26367,0.27734 1.04342,0.45529 1.80117,1.57815 2.29883,3.41406 0.49766,1.83591 0.64687,4.21989 0.61719,6.50586 -0.0594,4.57195 -0.74657,8.48707 -2.65625,13.5 -1.90968,5.01293 -5.06334,11.09564 -9.52735,18.61719 -4.464,7.52155 -10.25112,16.50703 -14.5957,24.20313 -4.34458,7.69609 -7.20222,14.03552 -10.03125,20.30859 -0.009,0.083 -0.0113,0.16659 -0.008,0.25 -2.44535,-0.44607 -4.87415,-0.95577 -7.28321,-1.51563 -8.68598,-2.01856 -16.94558,-4.32651 -26.13085,-8.03711 -9.18529,-3.71059 -19.36212,-8.87113 -26.80665,-11.58398 -4.08385,-1.48819 -7.28511,-2.17206 -9.97656,-2.4668 1.64379,-2.3188 3.35432,-4.58283 5.4043,-6.76367 2.78434,-2.96208 6.26295,-5.84732 11.26562,-9.50781 5.00267,-3.66049 11.49358,-8.06786 17.32032,-11.4668 5.82674,-3.39893 11.10462,-5.85303 17.07422,-9.21094 5.9696,-3.35788 12.49596,-7.54621 19.05273,-11.52929 6.55677,-3.98309 13.15695,-7.77024 19.47266,-10.80664 3.15785,-1.5182 6.23133,-2.83612 8.82226,-3.57227 1.29547,-0.36807 2.45625,-0.56586 3.42383,-0.61523 z m -138.17578,62.60547 c 0.8556,0.02 1.68288,0.0783 2.50195,0.16601 3.27632,0.35104 6.31577,1.16669 9.25391,2.34375 2.69944,1.08145 5.34402,2.49505 8.02539,3.95117 -0.18429,0.46071 -0.45138,0.88378 -0.55664,1.375 -0.41883,1.95457 -0.53481,4.49078 -0.084,7.83985 0.45083,3.34908 1.48117,7.63958 3.98047,11.7832 2.49932,4.14364 6.30785,7.92035 10.02539,11.00781 3.38507,2.81132 6.78058,5.07186 10.78516,7.67774 -6.96709,2.09511 -14.01533,4.17766 -22.63477,6.20898 -9.6004,2.26252 -21.09332,4.4563 -31.11914,4.93945 -10.02582,0.48316 -18.71472,-0.72116 -27.63086,-2.49218 -8.91614,-1.77102 -17.85445,-4.0737 -26.50781,-8.40039 -8.65335,-4.3267 -17.19125,-10.7766 -24.10351,-16.4043 -6.91228,-5.62769 -12.16048,-10.39101 -15.78907,-14.08008 -1.81429,-1.84454 -3.14474,-3.46891 -3.47461,-4.27734 -0.16493,-0.40422 -0.11207,-0.44284 -0.10742,-0.45313 0.005,-0.0103 0.12595,-0.22798 0.77735,-0.51367 1.30281,-0.57139 4.40986,-1.11103 8.38086,-1.38281 3.971,-0.27178 8.87642,-0.34899 14.17382,-0.31836 10.5948,0.0612 22.77414,0.55325 32.69727,0.36719 9.92312,-0.18607 17.56749,-1.05763 24.54101,-2.75391 6.97353,-1.69627 13.18204,-4.17274 17.92579,-5.41797 3.55781,-0.93391 6.37264,-1.22598 8.93945,-1.16601 z"
       sodipodi:nodetypes="ssscsssssssccssssssssscssssssssssssssssccsssssssscssssssscsssssssssssssscsscsssssssssssssssssccssssssssssscssssssssscsssscsssssssssssscsscssssssssscccsccsssssssssssssssssccsssccsssssssssssccscccsssscssssccccccsssssssccsssssssssscssssssssccccsssssssssccssssssssssssssssssscssscsssssscccccsssssssscssscssssssscssccsssssssssssccsssccsscsscsssccssccsscsssssssscssscssssssssssscsssscssssssscssssssscssssssscs" />
  </g>
</svg>
